# xmcd
#
# Track frame offsets:
#	150
#	25160
#	44142
#	61000
#	76170
#	96285
#	116790
#	138600
#	163825
#	181957
#
# Disc length: 2688 seconds
#
# Revision: 0
# Processed by: cddbd v1.4PL0 Copyright (c) Steve Scherf et al.
# Submitted via: EasyCDDAExtractor 5.0.0.0
#
DISCID=870a7e0a
DTITLE=Western Vogue - Round Up
DYEAR=1992
DGENRE=Country
TTITLE0=What's It All About?
TTITLE1=Reaction
TTITLE2=Indian Giver
TTITLE3=Walk Alone
TTITLE4=Windows of the Heart
TTITLE5=I Won't Be Here
TTITLE6=Talk To You
TTITLE7=You Can't Make Right What You Left
TTITLE8=I Want You (To Be True)
TTITLE9=The Sabbath
EXTD=Recorded live at Coupe Studio, Boulder, CO\nProduced by S Strecker, Engin
EXTD=eered by E Kaufman, Mixed by E Kaufman, D Strecker, J Ashton\nMusicians: 
EXTD=John Ashton, Lead Guitar - Frank Baier, Bass - Mike Marlier, Drums - Shauna 
EXTD=Strecker, Acoustic Guitar and Lead Vocals
EXTT0=
EXTT1=
EXTT2=
EXTT3=
EXTT4=
EXTT5=
EXTT6=
EXTT7=
EXTT8=
EXTT9=
PLAYORDER=
